<mxfile host="app.diagrams.net" agent="Mozilla/5.0 (Windows NT 10.0; Win64; x64) AppleWebKit/537.36 (KHTML, like Gecko) Chrome/131.0.0.0 Safari/537.36" version="25.0.3">
  <diagram name="Page-1" id="U95p6Cpx4X8_NTuBjeX-">
    <mxGraphModel dx="1900" dy="530" grid="1" gridSize="10" guides="1" tooltips="1" connect="1" arrows="1" fold="1" page="1" pageScale="1" pageWidth="850" pageHeight="1100" math="0" shadow="0">
      <root>
        <mxCell id="0" />
        <mxCell id="1" parent="0" />
        <mxCell id="Qpi3XrH6rghNJpr6q4uD-12" value="" style="rounded=0;whiteSpace=wrap;html=1;strokeColor=#77FF29;dashed=1;dashPattern=8 8;" parent="1" vertex="1">
          <mxGeometry x="70" y="310" width="920" height="710" as="geometry" />
        </mxCell>
        <mxCell id="hZhW2IzUP-VDz9tQ_r6S-1" value="mem" style="rounded=0;whiteSpace=wrap;html=1;" parent="1" vertex="1">
          <mxGeometry x="440" y="435" width="160" height="120" as="geometry" />
        </mxCell>
        <mxCell id="hZhW2IzUP-VDz9tQ_r6S-6" value="" style="endArrow=classic;html=1;rounded=0;entryX=0;entryY=0.375;entryDx=0;entryDy=0;entryPerimeter=0;" parent="1" target="hZhW2IzUP-VDz9tQ_r6S-8" edge="1">
          <mxGeometry width="50" height="50" relative="1" as="geometry">
            <mxPoint x="40" y="440" as="sourcePoint" />
            <mxPoint x="160" y="440" as="targetPoint" />
          </mxGeometry>
        </mxCell>
        <mxCell id="hZhW2IzUP-VDz9tQ_r6S-8" value="Controller" style="rounded=0;whiteSpace=wrap;html=1;" parent="1" vertex="1">
          <mxGeometry x="160" y="410" width="160" height="80" as="geometry" />
        </mxCell>
        <mxCell id="hZhW2IzUP-VDz9tQ_r6S-9" value="" style="endArrow=classic;html=1;rounded=0;entryX=-0.003;entryY=0.623;entryDx=0;entryDy=0;entryPerimeter=0;" parent="1" target="hZhW2IzUP-VDz9tQ_r6S-8" edge="1">
          <mxGeometry width="50" height="50" relative="1" as="geometry">
            <mxPoint x="40" y="460" as="sourcePoint" />
            <mxPoint x="70" y="470" as="targetPoint" />
          </mxGeometry>
        </mxCell>
        <mxCell id="hZhW2IzUP-VDz9tQ_r6S-10" value="" style="endArrow=classic;html=1;rounded=0;entryX=-0.003;entryY=0.623;entryDx=0;entryDy=0;entryPerimeter=0;" parent="1" edge="1">
          <mxGeometry width="50" height="50" relative="1" as="geometry">
            <mxPoint x="40" y="480" as="sourcePoint" />
            <mxPoint x="160" y="479.89" as="targetPoint" />
          </mxGeometry>
        </mxCell>
        <mxCell id="hZhW2IzUP-VDz9tQ_r6S-11" value="clk" style="text;html=1;align=center;verticalAlign=middle;whiteSpace=wrap;rounded=0;" parent="1" vertex="1">
          <mxGeometry x="-30" y="420" width="60" height="30" as="geometry" />
        </mxCell>
        <mxCell id="hZhW2IzUP-VDz9tQ_r6S-12" value="rst_n" style="text;html=1;align=center;verticalAlign=middle;whiteSpace=wrap;rounded=0;" parent="1" vertex="1">
          <mxGeometry x="-30" y="440" width="60" height="30" as="geometry" />
        </mxCell>
        <mxCell id="hZhW2IzUP-VDz9tQ_r6S-13" value="done_i" style="text;html=1;align=center;verticalAlign=middle;whiteSpace=wrap;rounded=0;" parent="1" vertex="1">
          <mxGeometry x="-30" y="465" width="60" height="30" as="geometry" />
        </mxCell>
        <mxCell id="hZhW2IzUP-VDz9tQ_r6S-15" value="" style="endArrow=classic;html=1;rounded=0;exitX=0.875;exitY=0;exitDx=0;exitDy=0;exitPerimeter=0;" parent="1" source="hZhW2IzUP-VDz9tQ_r6S-8" edge="1">
          <mxGeometry width="50" height="50" relative="1" as="geometry">
            <mxPoint x="300" y="408" as="sourcePoint" />
            <mxPoint x="300" y="340" as="targetPoint" />
          </mxGeometry>
        </mxCell>
        <mxCell id="hZhW2IzUP-VDz9tQ_r6S-16" value="" style="endArrow=classic;html=1;rounded=0;exitX=0.877;exitY=-0.024;exitDx=0;exitDy=0;exitPerimeter=0;" parent="1" edge="1">
          <mxGeometry width="50" height="50" relative="1" as="geometry">
            <mxPoint x="250" y="410" as="sourcePoint" />
            <mxPoint x="250" y="342" as="targetPoint" />
          </mxGeometry>
        </mxCell>
        <mxCell id="hZhW2IzUP-VDz9tQ_r6S-17" value="" style="endArrow=classic;html=1;rounded=0;exitX=0.877;exitY=-0.024;exitDx=0;exitDy=0;exitPerimeter=0;" parent="1" edge="1">
          <mxGeometry width="50" height="50" relative="1" as="geometry">
            <mxPoint x="200" y="410" as="sourcePoint" />
            <mxPoint x="200" y="280" as="targetPoint" />
          </mxGeometry>
        </mxCell>
        <mxCell id="hZhW2IzUP-VDz9tQ_r6S-18" value="done_o" style="text;html=1;align=center;verticalAlign=middle;whiteSpace=wrap;rounded=0;" parent="1" vertex="1">
          <mxGeometry x="180" y="240" width="60" height="30" as="geometry" />
        </mxCell>
        <mxCell id="hZhW2IzUP-VDz9tQ_r6S-19" value="wr_en" style="text;html=1;align=center;verticalAlign=middle;whiteSpace=wrap;rounded=0;" parent="1" vertex="1">
          <mxGeometry x="220" y="320" width="60" height="20" as="geometry" />
        </mxCell>
        <mxCell id="hZhW2IzUP-VDz9tQ_r6S-20" value="rd_en" style="text;html=1;align=center;verticalAlign=middle;whiteSpace=wrap;rounded=0;" parent="1" vertex="1">
          <mxGeometry x="270" y="320" width="60" height="20" as="geometry" />
        </mxCell>
        <mxCell id="hZhW2IzUP-VDz9tQ_r6S-21" value="" style="endArrow=classic;html=1;rounded=0;entryX=0.75;entryY=0;entryDx=0;entryDy=0;" parent="1" target="hZhW2IzUP-VDz9tQ_r6S-1" edge="1">
          <mxGeometry width="50" height="50" relative="1" as="geometry">
            <mxPoint x="560" y="280" as="sourcePoint" />
            <mxPoint x="532.3809523809523" y="235.00285714285712" as="targetPoint" />
          </mxGeometry>
        </mxCell>
        <mxCell id="hZhW2IzUP-VDz9tQ_r6S-22" value="data_i [7:0]" style="text;html=1;align=center;verticalAlign=middle;whiteSpace=wrap;rounded=0;" parent="1" vertex="1">
          <mxGeometry x="530" y="240" width="60" height="30" as="geometry" />
        </mxCell>
        <mxCell id="hZhW2IzUP-VDz9tQ_r6S-24" value="" style="endArrow=classic;html=1;rounded=0;entryX=-0.007;entryY=0.331;entryDx=0;entryDy=0;entryPerimeter=0;" parent="1" target="hZhW2IzUP-VDz9tQ_r6S-1" edge="1">
          <mxGeometry width="50" height="50" relative="1" as="geometry">
            <mxPoint x="360" y="475" as="sourcePoint" />
            <mxPoint x="430" y="420" as="targetPoint" />
          </mxGeometry>
        </mxCell>
        <mxCell id="hZhW2IzUP-VDz9tQ_r6S-25" value="wr_en" style="text;html=1;align=center;verticalAlign=middle;whiteSpace=wrap;rounded=0;" parent="1" vertex="1">
          <mxGeometry x="350" y="435" width="60" height="30" as="geometry" />
        </mxCell>
        <mxCell id="hZhW2IzUP-VDz9tQ_r6S-26" value="" style="endArrow=classic;html=1;rounded=0;" parent="1" edge="1">
          <mxGeometry width="50" height="50" relative="1" as="geometry">
            <mxPoint x="360" y="515" as="sourcePoint" />
            <mxPoint x="440" y="515" as="targetPoint" />
          </mxGeometry>
        </mxCell>
        <mxCell id="hZhW2IzUP-VDz9tQ_r6S-27" value="rd_en" style="text;html=1;align=center;verticalAlign=middle;whiteSpace=wrap;rounded=0;" parent="1" vertex="1">
          <mxGeometry x="350" y="485" width="60" height="30" as="geometry" />
        </mxCell>
        <mxCell id="hZhW2IzUP-VDz9tQ_r6S-30" value="" style="endArrow=classic;html=1;rounded=0;entryX=0.999;entryY=0.331;entryDx=0;entryDy=0;entryPerimeter=0;" parent="1" target="hZhW2IzUP-VDz9tQ_r6S-1" edge="1">
          <mxGeometry width="50" height="50" relative="1" as="geometry">
            <mxPoint x="680" y="475" as="sourcePoint" />
            <mxPoint x="600" y="477" as="targetPoint" />
          </mxGeometry>
        </mxCell>
        <mxCell id="hZhW2IzUP-VDz9tQ_r6S-31" value="rd_pointer [9:0]" style="text;html=1;align=center;verticalAlign=middle;whiteSpace=wrap;rounded=0;" parent="1" vertex="1">
          <mxGeometry x="620" y="445" width="60" height="30" as="geometry" />
        </mxCell>
        <mxCell id="hZhW2IzUP-VDz9tQ_r6S-32" value="" style="endArrow=classic;html=1;rounded=0;entryX=0.999;entryY=0.669;entryDx=0;entryDy=0;entryPerimeter=0;" parent="1" target="hZhW2IzUP-VDz9tQ_r6S-1" edge="1">
          <mxGeometry width="50" height="50" relative="1" as="geometry">
            <mxPoint x="680" y="515" as="sourcePoint" />
            <mxPoint x="710" y="535" as="targetPoint" />
          </mxGeometry>
        </mxCell>
        <mxCell id="hZhW2IzUP-VDz9tQ_r6S-33" value="wr_pointer [9:0]" style="text;html=1;align=center;verticalAlign=middle;whiteSpace=wrap;rounded=0;" parent="1" vertex="1">
          <mxGeometry x="620" y="485" width="60" height="30" as="geometry" />
        </mxCell>
        <mxCell id="hZhW2IzUP-VDz9tQ_r6S-37" value="=" style="rounded=0;whiteSpace=wrap;html=1;" parent="1" vertex="1">
          <mxGeometry x="110" y="750" width="120" height="60" as="geometry" />
        </mxCell>
        <mxCell id="hZhW2IzUP-VDz9tQ_r6S-38" value="" style="endArrow=classic;html=1;rounded=0;entryX=0.166;entryY=-0.003;entryDx=0;entryDy=0;entryPerimeter=0;" parent="1" target="hZhW2IzUP-VDz9tQ_r6S-37" edge="1">
          <mxGeometry width="50" height="50" relative="1" as="geometry">
            <mxPoint x="130" y="710" as="sourcePoint" />
            <mxPoint x="140" y="670" as="targetPoint" />
          </mxGeometry>
        </mxCell>
        <mxCell id="hZhW2IzUP-VDz9tQ_r6S-39" value="wr_pointer [9:0]" style="text;html=1;align=center;verticalAlign=middle;whiteSpace=wrap;rounded=0;" parent="1" vertex="1">
          <mxGeometry x="100" y="680" width="60" height="30" as="geometry" />
        </mxCell>
        <mxCell id="hZhW2IzUP-VDz9tQ_r6S-41" value="" style="endArrow=classic;html=1;rounded=0;entryX=0.166;entryY=-0.003;entryDx=0;entryDy=0;entryPerimeter=0;" parent="1" edge="1">
          <mxGeometry width="50" height="50" relative="1" as="geometry">
            <mxPoint x="200" y="710" as="sourcePoint" />
            <mxPoint x="200" y="750" as="targetPoint" />
          </mxGeometry>
        </mxCell>
        <mxCell id="hZhW2IzUP-VDz9tQ_r6S-42" value="DEPTH - 1" style="text;html=1;align=center;verticalAlign=middle;whiteSpace=wrap;rounded=0;" parent="1" vertex="1">
          <mxGeometry x="170" y="680" width="60" height="30" as="geometry" />
        </mxCell>
        <mxCell id="hZhW2IzUP-VDz9tQ_r6S-43" value="" style="endArrow=classic;html=1;rounded=0;exitX=0.5;exitY=1;exitDx=0;exitDy=0;entryX=1;entryY=0.5;entryDx=0;entryDy=0;" parent="1" source="hZhW2IzUP-VDz9tQ_r6S-37" target="hZhW2IzUP-VDz9tQ_r6S-48" edge="1">
          <mxGeometry width="50" height="50" relative="1" as="geometry">
            <mxPoint x="160" y="870" as="sourcePoint" />
            <mxPoint x="170" y="860" as="targetPoint" />
            <Array as="points">
              <mxPoint x="170" y="870" />
            </Array>
          </mxGeometry>
        </mxCell>
        <mxCell id="hZhW2IzUP-VDz9tQ_r6S-44" value="" style="triangle;whiteSpace=wrap;html=1;direction=north;" parent="1" vertex="1">
          <mxGeometry x="510" y="535" width="20" height="20" as="geometry" />
        </mxCell>
        <mxCell id="hZhW2IzUP-VDz9tQ_r6S-48" value="" style="shape=trapezoid;perimeter=trapezoidPerimeter;whiteSpace=wrap;html=1;fixedSize=1;rotation=180;" parent="1" vertex="1">
          <mxGeometry x="250" y="840" width="110" height="60" as="geometry" />
        </mxCell>
        <mxCell id="hZhW2IzUP-VDz9tQ_r6S-49" value="0" style="text;html=1;align=center;verticalAlign=middle;whiteSpace=wrap;rounded=0;" parent="1" vertex="1">
          <mxGeometry x="250" y="840" width="60" height="30" as="geometry" />
        </mxCell>
        <mxCell id="hZhW2IzUP-VDz9tQ_r6S-50" value="1" style="text;html=1;align=center;verticalAlign=middle;whiteSpace=wrap;rounded=0;" parent="1" vertex="1">
          <mxGeometry x="300" y="840" width="60" height="30" as="geometry" />
        </mxCell>
        <mxCell id="hZhW2IzUP-VDz9tQ_r6S-51" value="" style="endArrow=classic;html=1;rounded=0;entryX=0.5;entryY=0;entryDx=0;entryDy=0;" parent="1" target="hZhW2IzUP-VDz9tQ_r6S-50" edge="1">
          <mxGeometry width="50" height="50" relative="1" as="geometry">
            <mxPoint x="330" y="790" as="sourcePoint" />
            <mxPoint x="400" y="755" as="targetPoint" />
          </mxGeometry>
        </mxCell>
        <mxCell id="hZhW2IzUP-VDz9tQ_r6S-52" value="" style="endArrow=classic;html=1;rounded=0;entryX=0.5;entryY=0;entryDx=0;entryDy=0;exitX=0.5;exitY=1;exitDx=0;exitDy=0;" parent="1" source="hZhW2IzUP-VDz9tQ_r6S-55" target="hZhW2IzUP-VDz9tQ_r6S-49" edge="1">
          <mxGeometry width="50" height="50" relative="1" as="geometry">
            <mxPoint x="270" y="710" as="sourcePoint" />
            <mxPoint x="295" y="720" as="targetPoint" />
          </mxGeometry>
        </mxCell>
        <mxCell id="hZhW2IzUP-VDz9tQ_r6S-53" value="0" style="text;html=1;align=center;verticalAlign=middle;whiteSpace=wrap;rounded=0;" parent="1" vertex="1">
          <mxGeometry x="300" y="760" width="60" height="30" as="geometry" />
        </mxCell>
        <mxCell id="hZhW2IzUP-VDz9tQ_r6S-54" value="" style="endArrow=classic;html=1;rounded=0;exitX=0.5;exitY=0;exitDx=0;exitDy=0;" parent="1" source="hZhW2IzUP-VDz9tQ_r6S-48" edge="1">
          <mxGeometry width="50" height="50" relative="1" as="geometry">
            <mxPoint x="330" y="990" as="sourcePoint" />
            <mxPoint x="305" y="990" as="targetPoint" />
          </mxGeometry>
        </mxCell>
        <mxCell id="hZhW2IzUP-VDz9tQ_r6S-55" value="+1" style="rounded=0;whiteSpace=wrap;html=1;" parent="1" vertex="1">
          <mxGeometry x="250" y="650" width="60" height="60" as="geometry" />
        </mxCell>
        <mxCell id="hZhW2IzUP-VDz9tQ_r6S-56" value="" style="triangle;whiteSpace=wrap;html=1;" parent="1" vertex="1">
          <mxGeometry x="250" y="670" width="20" height="20" as="geometry" />
        </mxCell>
        <mxCell id="hZhW2IzUP-VDz9tQ_r6S-57" value="" style="endArrow=classic;html=1;rounded=0;entryX=1.034;entryY=0.583;entryDx=0;entryDy=0;entryPerimeter=0;" parent="1" edge="1">
          <mxGeometry width="50" height="50" relative="1" as="geometry">
            <mxPoint x="337.96" y="700.02" as="sourcePoint" />
            <mxPoint x="309.99999999999994" y="700" as="targetPoint" />
          </mxGeometry>
        </mxCell>
        <mxCell id="hZhW2IzUP-VDz9tQ_r6S-58" value="wr_en" style="text;html=1;align=center;verticalAlign=middle;whiteSpace=wrap;rounded=0;" parent="1" vertex="1">
          <mxGeometry x="320" y="670" width="60" height="30" as="geometry" />
        </mxCell>
        <mxCell id="hZhW2IzUP-VDz9tQ_r6S-60" value="" style="endArrow=classic;html=1;rounded=0;entryX=0.166;entryY=-0.003;entryDx=0;entryDy=0;entryPerimeter=0;" parent="1" edge="1">
          <mxGeometry width="50" height="50" relative="1" as="geometry">
            <mxPoint x="280" y="610" as="sourcePoint" />
            <mxPoint x="280" y="650" as="targetPoint" />
          </mxGeometry>
        </mxCell>
        <mxCell id="hZhW2IzUP-VDz9tQ_r6S-61" value="wr_pointer [9:0]" style="text;html=1;align=center;verticalAlign=middle;whiteSpace=wrap;rounded=0;" parent="1" vertex="1">
          <mxGeometry x="250" y="580" width="60" height="30" as="geometry" />
        </mxCell>
        <mxCell id="hZhW2IzUP-VDz9tQ_r6S-63" value="wr_pointer [9:0]" style="text;html=1;align=center;verticalAlign=middle;whiteSpace=wrap;rounded=0;" parent="1" vertex="1">
          <mxGeometry x="310" y="960" width="60" height="30" as="geometry" />
        </mxCell>
        <mxCell id="hZhW2IzUP-VDz9tQ_r6S-64" value="=" style="rounded=0;whiteSpace=wrap;html=1;" parent="1" vertex="1">
          <mxGeometry x="400" y="750" width="120" height="60" as="geometry" />
        </mxCell>
        <mxCell id="hZhW2IzUP-VDz9tQ_r6S-65" value="" style="endArrow=classic;html=1;rounded=0;entryX=0.166;entryY=-0.003;entryDx=0;entryDy=0;entryPerimeter=0;" parent="1" target="hZhW2IzUP-VDz9tQ_r6S-64" edge="1">
          <mxGeometry width="50" height="50" relative="1" as="geometry">
            <mxPoint x="420" y="710" as="sourcePoint" />
            <mxPoint x="430" y="670" as="targetPoint" />
          </mxGeometry>
        </mxCell>
        <mxCell id="hZhW2IzUP-VDz9tQ_r6S-66" value="rd_pointer [9:0]" style="text;html=1;align=center;verticalAlign=middle;whiteSpace=wrap;rounded=0;" parent="1" vertex="1">
          <mxGeometry x="390" y="680" width="60" height="30" as="geometry" />
        </mxCell>
        <mxCell id="hZhW2IzUP-VDz9tQ_r6S-67" value="" style="endArrow=classic;html=1;rounded=0;entryX=0.166;entryY=-0.003;entryDx=0;entryDy=0;entryPerimeter=0;" parent="1" edge="1">
          <mxGeometry width="50" height="50" relative="1" as="geometry">
            <mxPoint x="490" y="710" as="sourcePoint" />
            <mxPoint x="490" y="750" as="targetPoint" />
          </mxGeometry>
        </mxCell>
        <mxCell id="hZhW2IzUP-VDz9tQ_r6S-68" value="DEPTH - 1" style="text;html=1;align=center;verticalAlign=middle;whiteSpace=wrap;rounded=0;" parent="1" vertex="1">
          <mxGeometry x="460" y="680" width="60" height="30" as="geometry" />
        </mxCell>
        <mxCell id="hZhW2IzUP-VDz9tQ_r6S-69" value="" style="endArrow=classic;html=1;rounded=0;exitX=0.5;exitY=1;exitDx=0;exitDy=0;entryX=1;entryY=0.5;entryDx=0;entryDy=0;" parent="1" source="hZhW2IzUP-VDz9tQ_r6S-64" target="hZhW2IzUP-VDz9tQ_r6S-70" edge="1">
          <mxGeometry width="50" height="50" relative="1" as="geometry">
            <mxPoint x="450" y="870" as="sourcePoint" />
            <mxPoint x="460" y="860" as="targetPoint" />
            <Array as="points">
              <mxPoint x="460" y="870" />
            </Array>
          </mxGeometry>
        </mxCell>
        <mxCell id="hZhW2IzUP-VDz9tQ_r6S-70" value="" style="shape=trapezoid;perimeter=trapezoidPerimeter;whiteSpace=wrap;html=1;fixedSize=1;rotation=180;" parent="1" vertex="1">
          <mxGeometry x="540" y="840" width="110" height="60" as="geometry" />
        </mxCell>
        <mxCell id="hZhW2IzUP-VDz9tQ_r6S-71" value="0" style="text;html=1;align=center;verticalAlign=middle;whiteSpace=wrap;rounded=0;" parent="1" vertex="1">
          <mxGeometry x="540" y="840" width="60" height="30" as="geometry" />
        </mxCell>
        <mxCell id="hZhW2IzUP-VDz9tQ_r6S-72" value="1" style="text;html=1;align=center;verticalAlign=middle;whiteSpace=wrap;rounded=0;" parent="1" vertex="1">
          <mxGeometry x="590" y="840" width="60" height="30" as="geometry" />
        </mxCell>
        <mxCell id="hZhW2IzUP-VDz9tQ_r6S-73" value="" style="endArrow=classic;html=1;rounded=0;entryX=0.5;entryY=0;entryDx=0;entryDy=0;" parent="1" target="hZhW2IzUP-VDz9tQ_r6S-72" edge="1">
          <mxGeometry width="50" height="50" relative="1" as="geometry">
            <mxPoint x="620" y="790" as="sourcePoint" />
            <mxPoint x="690" y="755" as="targetPoint" />
          </mxGeometry>
        </mxCell>
        <mxCell id="hZhW2IzUP-VDz9tQ_r6S-74" value="" style="endArrow=classic;html=1;rounded=0;entryX=0.5;entryY=0;entryDx=0;entryDy=0;exitX=0.5;exitY=1;exitDx=0;exitDy=0;" parent="1" source="hZhW2IzUP-VDz9tQ_r6S-77" target="hZhW2IzUP-VDz9tQ_r6S-71" edge="1">
          <mxGeometry width="50" height="50" relative="1" as="geometry">
            <mxPoint x="560" y="710" as="sourcePoint" />
            <mxPoint x="585" y="720" as="targetPoint" />
          </mxGeometry>
        </mxCell>
        <mxCell id="hZhW2IzUP-VDz9tQ_r6S-75" value="0" style="text;html=1;align=center;verticalAlign=middle;whiteSpace=wrap;rounded=0;" parent="1" vertex="1">
          <mxGeometry x="590" y="760" width="60" height="30" as="geometry" />
        </mxCell>
        <mxCell id="hZhW2IzUP-VDz9tQ_r6S-76" value="" style="endArrow=classic;html=1;rounded=0;exitX=0.5;exitY=0;exitDx=0;exitDy=0;" parent="1" source="hZhW2IzUP-VDz9tQ_r6S-70" edge="1">
          <mxGeometry width="50" height="50" relative="1" as="geometry">
            <mxPoint x="620" y="990" as="sourcePoint" />
            <mxPoint x="595" y="990" as="targetPoint" />
          </mxGeometry>
        </mxCell>
        <mxCell id="hZhW2IzUP-VDz9tQ_r6S-77" value="+1" style="rounded=0;whiteSpace=wrap;html=1;" parent="1" vertex="1">
          <mxGeometry x="540" y="650" width="60" height="60" as="geometry" />
        </mxCell>
        <mxCell id="hZhW2IzUP-VDz9tQ_r6S-78" value="" style="triangle;whiteSpace=wrap;html=1;" parent="1" vertex="1">
          <mxGeometry x="540" y="670" width="20" height="20" as="geometry" />
        </mxCell>
        <mxCell id="hZhW2IzUP-VDz9tQ_r6S-79" value="" style="endArrow=classic;html=1;rounded=0;entryX=1.034;entryY=0.583;entryDx=0;entryDy=0;entryPerimeter=0;" parent="1" target="hZhW2IzUP-VDz9tQ_r6S-77" edge="1">
          <mxGeometry width="50" height="50" relative="1" as="geometry">
            <mxPoint x="630" y="685" as="sourcePoint" />
            <mxPoint x="680" y="680" as="targetPoint" />
          </mxGeometry>
        </mxCell>
        <mxCell id="hZhW2IzUP-VDz9tQ_r6S-80" value="rd_en" style="text;html=1;align=center;verticalAlign=middle;whiteSpace=wrap;rounded=0;" parent="1" vertex="1">
          <mxGeometry x="610" y="660" width="60" height="30" as="geometry" />
        </mxCell>
        <mxCell id="hZhW2IzUP-VDz9tQ_r6S-81" value="" style="endArrow=classic;html=1;rounded=0;entryX=0.166;entryY=-0.003;entryDx=0;entryDy=0;entryPerimeter=0;" parent="1" edge="1">
          <mxGeometry width="50" height="50" relative="1" as="geometry">
            <mxPoint x="570" y="610" as="sourcePoint" />
            <mxPoint x="570" y="650" as="targetPoint" />
          </mxGeometry>
        </mxCell>
        <mxCell id="hZhW2IzUP-VDz9tQ_r6S-82" value="rd_pointer [9:0]" style="text;html=1;align=center;verticalAlign=middle;whiteSpace=wrap;rounded=0;" parent="1" vertex="1">
          <mxGeometry x="540" y="580" width="60" height="30" as="geometry" />
        </mxCell>
        <mxCell id="hZhW2IzUP-VDz9tQ_r6S-83" value="rd_pointer [9:0]" style="text;html=1;align=center;verticalAlign=middle;whiteSpace=wrap;rounded=0;" parent="1" vertex="1">
          <mxGeometry x="600" y="960" width="60" height="30" as="geometry" />
        </mxCell>
        <mxCell id="hZhW2IzUP-VDz9tQ_r6S-85" value="" style="endArrow=none;dashed=1;html=1;dashPattern=1 3;strokeWidth=2;rounded=0;strokeColor=#2EC0FF;" parent="1" edge="1">
          <mxGeometry width="50" height="50" relative="1" as="geometry">
            <mxPoint x="70" y="576" as="sourcePoint" />
            <mxPoint x="350" y="310" as="targetPoint" />
            <Array as="points">
              <mxPoint x="350" y="576" />
            </Array>
          </mxGeometry>
        </mxCell>
        <mxCell id="hZhW2IzUP-VDz9tQ_r6S-86" value="" style="endArrow=classic;html=1;rounded=0;exitX=0.25;exitY=0;exitDx=0;exitDy=0;" parent="1" source="hZhW2IzUP-VDz9tQ_r6S-1" edge="1">
          <mxGeometry width="50" height="50" relative="1" as="geometry">
            <mxPoint x="496" y="434.99999999999994" as="sourcePoint" />
            <mxPoint x="480" y="280" as="targetPoint" />
          </mxGeometry>
        </mxCell>
        <mxCell id="hZhW2IzUP-VDz9tQ_r6S-87" value="data_o [7:0]" style="text;html=1;align=center;verticalAlign=middle;whiteSpace=wrap;rounded=0;" parent="1" vertex="1">
          <mxGeometry x="450" y="240" width="60" height="30" as="geometry" />
        </mxCell>
        <mxCell id="hZhW2IzUP-VDz9tQ_r6S-90" value="" style="endArrow=classic;html=1;rounded=0;" parent="1" edge="1">
          <mxGeometry width="50" height="50" relative="1" as="geometry">
            <mxPoint x="239.26" y="530" as="sourcePoint" />
            <mxPoint x="239.26" y="490" as="targetPoint" />
          </mxGeometry>
        </mxCell>
        <mxCell id="hZhW2IzUP-VDz9tQ_r6S-94" value="=" style="rounded=0;whiteSpace=wrap;html=1;" parent="1" vertex="1">
          <mxGeometry x="680" y="750" width="120" height="60" as="geometry" />
        </mxCell>
        <mxCell id="hZhW2IzUP-VDz9tQ_r6S-95" value="" style="endArrow=classic;html=1;rounded=0;entryX=0.166;entryY=-0.003;entryDx=0;entryDy=0;entryPerimeter=0;" parent="1" target="hZhW2IzUP-VDz9tQ_r6S-94" edge="1">
          <mxGeometry width="50" height="50" relative="1" as="geometry">
            <mxPoint x="700" y="710" as="sourcePoint" />
            <mxPoint x="710" y="670" as="targetPoint" />
          </mxGeometry>
        </mxCell>
        <mxCell id="hZhW2IzUP-VDz9tQ_r6S-96" value="i_counter [9:0]" style="text;html=1;align=center;verticalAlign=middle;whiteSpace=wrap;rounded=0;" parent="1" vertex="1">
          <mxGeometry x="670" y="680" width="60" height="30" as="geometry" />
        </mxCell>
        <mxCell id="hZhW2IzUP-VDz9tQ_r6S-97" value="" style="endArrow=classic;html=1;rounded=0;entryX=0.166;entryY=-0.003;entryDx=0;entryDy=0;entryPerimeter=0;" parent="1" edge="1">
          <mxGeometry width="50" height="50" relative="1" as="geometry">
            <mxPoint x="770" y="710" as="sourcePoint" />
            <mxPoint x="770" y="750" as="targetPoint" />
          </mxGeometry>
        </mxCell>
        <mxCell id="hZhW2IzUP-VDz9tQ_r6S-98" value="DEPTH&amp;nbsp;" style="text;html=1;align=center;verticalAlign=middle;whiteSpace=wrap;rounded=0;" parent="1" vertex="1">
          <mxGeometry x="740" y="680" width="60" height="30" as="geometry" />
        </mxCell>
        <mxCell id="hZhW2IzUP-VDz9tQ_r6S-99" value="" style="endArrow=classic;html=1;rounded=0;exitX=0.5;exitY=1;exitDx=0;exitDy=0;entryX=1;entryY=0.5;entryDx=0;entryDy=0;" parent="1" source="hZhW2IzUP-VDz9tQ_r6S-94" target="hZhW2IzUP-VDz9tQ_r6S-100" edge="1">
          <mxGeometry width="50" height="50" relative="1" as="geometry">
            <mxPoint x="730" y="870" as="sourcePoint" />
            <mxPoint x="740" y="860" as="targetPoint" />
            <Array as="points">
              <mxPoint x="740" y="870" />
            </Array>
          </mxGeometry>
        </mxCell>
        <mxCell id="hZhW2IzUP-VDz9tQ_r6S-100" value="" style="shape=trapezoid;perimeter=trapezoidPerimeter;whiteSpace=wrap;html=1;fixedSize=1;rotation=180;" parent="1" vertex="1">
          <mxGeometry x="820" y="840" width="110" height="60" as="geometry" />
        </mxCell>
        <mxCell id="hZhW2IzUP-VDz9tQ_r6S-101" value="0" style="text;html=1;align=center;verticalAlign=middle;whiteSpace=wrap;rounded=0;" parent="1" vertex="1">
          <mxGeometry x="820" y="840" width="60" height="30" as="geometry" />
        </mxCell>
        <mxCell id="hZhW2IzUP-VDz9tQ_r6S-102" value="1" style="text;html=1;align=center;verticalAlign=middle;whiteSpace=wrap;rounded=0;" parent="1" vertex="1">
          <mxGeometry x="870" y="840" width="60" height="30" as="geometry" />
        </mxCell>
        <mxCell id="hZhW2IzUP-VDz9tQ_r6S-103" value="" style="endArrow=classic;html=1;rounded=0;entryX=0.5;entryY=0;entryDx=0;entryDy=0;" parent="1" target="hZhW2IzUP-VDz9tQ_r6S-102" edge="1">
          <mxGeometry width="50" height="50" relative="1" as="geometry">
            <mxPoint x="900" y="790" as="sourcePoint" />
            <mxPoint x="970" y="755" as="targetPoint" />
          </mxGeometry>
        </mxCell>
        <mxCell id="hZhW2IzUP-VDz9tQ_r6S-104" value="" style="endArrow=classic;html=1;rounded=0;entryX=0.5;entryY=0;entryDx=0;entryDy=0;exitX=0.5;exitY=1;exitDx=0;exitDy=0;" parent="1" source="hZhW2IzUP-VDz9tQ_r6S-107" target="hZhW2IzUP-VDz9tQ_r6S-101" edge="1">
          <mxGeometry width="50" height="50" relative="1" as="geometry">
            <mxPoint x="840" y="710" as="sourcePoint" />
            <mxPoint x="865" y="720" as="targetPoint" />
          </mxGeometry>
        </mxCell>
        <mxCell id="hZhW2IzUP-VDz9tQ_r6S-105" value="i_counter [9:0]" style="text;html=1;align=center;verticalAlign=middle;whiteSpace=wrap;rounded=0;" parent="1" vertex="1">
          <mxGeometry x="860" y="760" width="70" height="30" as="geometry" />
        </mxCell>
        <mxCell id="hZhW2IzUP-VDz9tQ_r6S-106" value="" style="endArrow=classic;html=1;rounded=0;exitX=0.5;exitY=0;exitDx=0;exitDy=0;" parent="1" source="hZhW2IzUP-VDz9tQ_r6S-100" edge="1">
          <mxGeometry width="50" height="50" relative="1" as="geometry">
            <mxPoint x="900" y="990" as="sourcePoint" />
            <mxPoint x="875" y="990" as="targetPoint" />
          </mxGeometry>
        </mxCell>
        <mxCell id="hZhW2IzUP-VDz9tQ_r6S-107" value="+1" style="rounded=0;whiteSpace=wrap;html=1;" parent="1" vertex="1">
          <mxGeometry x="820" y="650" width="60" height="60" as="geometry" />
        </mxCell>
        <mxCell id="hZhW2IzUP-VDz9tQ_r6S-108" value="" style="triangle;whiteSpace=wrap;html=1;" parent="1" vertex="1">
          <mxGeometry x="820" y="670" width="20" height="20" as="geometry" />
        </mxCell>
        <mxCell id="hZhW2IzUP-VDz9tQ_r6S-109" value="" style="endArrow=classic;html=1;rounded=0;entryX=1.034;entryY=0.583;entryDx=0;entryDy=0;entryPerimeter=0;" parent="1" target="hZhW2IzUP-VDz9tQ_r6S-107" edge="1">
          <mxGeometry width="50" height="50" relative="1" as="geometry">
            <mxPoint x="910" y="685" as="sourcePoint" />
            <mxPoint x="960" y="680" as="targetPoint" />
          </mxGeometry>
        </mxCell>
        <mxCell id="hZhW2IzUP-VDz9tQ_r6S-110" value="wr_en" style="text;html=1;align=center;verticalAlign=middle;whiteSpace=wrap;rounded=0;" parent="1" vertex="1">
          <mxGeometry x="890" y="660" width="60" height="30" as="geometry" />
        </mxCell>
        <mxCell id="hZhW2IzUP-VDz9tQ_r6S-111" value="" style="endArrow=classic;html=1;rounded=0;entryX=0.166;entryY=-0.003;entryDx=0;entryDy=0;entryPerimeter=0;" parent="1" edge="1">
          <mxGeometry width="50" height="50" relative="1" as="geometry">
            <mxPoint x="850" y="610" as="sourcePoint" />
            <mxPoint x="850" y="650" as="targetPoint" />
          </mxGeometry>
        </mxCell>
        <mxCell id="hZhW2IzUP-VDz9tQ_r6S-112" value="i_counter [9:0]" style="text;html=1;align=center;verticalAlign=middle;whiteSpace=wrap;rounded=0;" parent="1" vertex="1">
          <mxGeometry x="820" y="580" width="60" height="30" as="geometry" />
        </mxCell>
        <mxCell id="hZhW2IzUP-VDz9tQ_r6S-113" value="i_counter [9:0]" style="text;html=1;align=center;verticalAlign=middle;whiteSpace=wrap;rounded=0;" parent="1" vertex="1">
          <mxGeometry x="880" y="960" width="60" height="30" as="geometry" />
        </mxCell>
        <mxCell id="hZhW2IzUP-VDz9tQ_r6S-114" value="i_counter [9:0]" style="text;html=1;align=center;verticalAlign=middle;whiteSpace=wrap;rounded=0;" parent="1" vertex="1">
          <mxGeometry x="210" y="535" width="60" height="30" as="geometry" />
        </mxCell>
        <mxCell id="Qpi3XrH6rghNJpr6q4uD-13" style="edgeStyle=orthogonalEdgeStyle;rounded=0;orthogonalLoop=1;jettySize=auto;html=1;exitX=0.5;exitY=1;exitDx=0;exitDy=0;" parent="1" source="Qpi3XrH6rghNJpr6q4uD-12" target="Qpi3XrH6rghNJpr6q4uD-12" edge="1">
          <mxGeometry relative="1" as="geometry" />
        </mxCell>
      </root>
    </mxGraphModel>
  </diagram>
</mxfile>
